<svg width="327" height="109" viewBox="0 0 327 109" fill="none" xmlns="http://www.w3.org/2000/svg">
<path d="M0.0862427 0.331614L288.947 -6.01025e-06V53.8342L326.569 54.1658V108H0.0862427V0.331614Z" fill="#FFFF00"/>
<path d="M271.682 47.6178L256.672 62.4552H249.685V56.6755L259.087 47.6178H235.796V11.7319H244.681V38.7326H262.797V11.7319H271.682V47.6178Z" fill="black"/>
<path d="M227.698 11.7319V29.5023H218.468V20.6171H208.634V47.6178H199.403V11.7319H227.698Z" fill="black"/>
<path d="M190.396 11.6455V47.5314H154.165V25.9654H181.166V20.0994H154.165V11.6455H190.396ZM181.166 39.5088V33.2978H163.396V39.5088H181.166Z" fill="black"/>
<path d="M126.911 20.6171V38.7326H145.026V47.6178H118.026V0H126.911V11.7319H145.026V20.6171H126.911Z" fill="black"/>
<path d="M108.799 0.172363V7.15976H99.9134V0.172363H108.799ZM99.9134 12.2493H108.799V47.6176H99.9134V12.2493Z" fill="black"/>
<path d="M90.6454 11.7319V47.6178H81.7602V20.6171H63.6448V47.6178H54.7596V11.7319H90.6454Z" fill="black"/>
<path d="M45.2024 47.6176H0.0862427V2.50146H9.3165V38.7324H36.3172V2.50146H45.2024V47.6176Z" fill="black"/>
<path d="M308.62 63.3545V108.471H299.735L272.734 77.5018V108.471H263.849V63.3545H272.734L299.735 94.3233V63.3545H308.62Z" fill="black"/>
<path d="M245.828 99.2404V90.3552H232.112V81.47H254.713V108.471H209.597V63.3545H254.713V72.2397H218.827V99.2404H245.828Z" fill="black"/>
<path d="M186.043 72.2397V99.2404H200.191V108.471H163.011V99.2404H177.158V72.2397H163.011V63.3545H200.191V72.2397H186.043Z" fill="black"/>
<path d="M117.73 72.5849V81.4701H153.616V108.471H108.845V99.5856H144.731V90.7004H108.845V63.6997H153.616V72.5849H117.73Z" fill="black"/>
<path d="M62.9789 72.2397V81.47H98.8647V90.3552H62.9789V99.2404H98.8647V108.471H53.7486V63.3545H98.8647V72.2397H62.9789Z" fill="black"/>
<path d="M45.1161 79.9174V92.2531L27.3457 108.471H0V63.6997H27.3457L45.1161 79.9174ZM36.2309 86.2146L21.566 72.5849H9.23026V99.5856H21.566L36.2309 86.2146Z" fill="black"/>
</svg>
